<?xml version="1.0" encoding="utf-8" standalone="no"?>
<!DOCTYPE svg PUBLIC "-//W3C//DTD SVG 1.1//EN"
  "http://www.w3.org/Graphics/SVG/1.1/DTD/svg11.dtd">
<svg xmlns:xlink="http://www.w3.org/1999/xlink" width="720pt" height="360pt" viewBox="0 0 720 360" xmlns="http://www.w3.org/2000/svg" version="1.1">
 <metadata>
  <rdf:RDF xmlns:dc="http://purl.org/dc/elements/1.1/" xmlns:cc="http://creativecommons.org/ns#" xmlns:rdf="http://www.w3.org/1999/02/22-rdf-syntax-ns#">
   <cc:Work>
    <dc:type rdf:resource="http://purl.org/dc/dcmitype/StillImage"/>
    <dc:date>2024-06-04T16:47:33.219256</dc:date>
    <dc:format>image/svg+xml</dc:format>
    <dc:creator>
     <cc:Agent>
      <dc:title>Matplotlib v3.8.4, https://matplotlib.org/</dc:title>
     </cc:Agent>
    </dc:creator>
   </cc:Work>
  </rdf:RDF>
 </metadata>
 <defs>
  <style type="text/css">*{stroke-linejoin: round; stroke-linecap: butt}</style>
 </defs>
 <g id="figure_1">
  <g id="patch_1">
   <path d="M 0 360 
L 720 360 
L 720 0 
L 0 0 
z
" style="fill: #ffffff"/>
  </g>
  <g id="axes_1">
   <g id="patch_2">
    <path d="M 90 320.4 
L 648 320.4 
L 648 43.2 
L 90 43.2 
z
" style="fill: #ffffff"/>
   </g>
   <g id="matplotlib.axis_1">
    <g id="xtick_1">
     <g id="line2d_1">
      <path d="M 115.363636 320.4 
L 115.363636 43.2 
" clip-path="url(#p3a168fe21d)" style="fill: none; stroke: #b0b0b0; stroke-width: 0.8; stroke-linecap: square"/>
     </g>
     <g id="line2d_2">
      <defs>
       <path id="me98e88a760" d="M 0 0 
L 0 3.5 
" style="stroke: #000000; stroke-width: 0.8"/>
      </defs>
      <g>
       <use xlink:href="#me98e88a760" x="115.363636" y="320.4" style="stroke: #000000; stroke-width: 0.8"/>
      </g>
     </g>
     <g id="text_1">
      <!-- 0 -->
      <g transform="translate(112.182386 334.998438) scale(0.1 -0.1)">
       <defs>
        <path id="DejaVuSans-30" d="M 2034 4250 
Q 1547 4250 1301 3770 
Q 1056 3291 1056 2328 
Q 1056 1369 1301 889 
Q 1547 409 2034 409 
Q 2525 409 2770 889 
Q 3016 1369 3016 2328 
Q 3016 3291 2770 3770 
Q 2525 4250 2034 4250 
z
M 2034 4750 
Q 2819 4750 3233 4129 
Q 3647 3509 3647 2328 
Q 3647 1150 3233 529 
Q 2819 -91 2034 -91 
Q 1250 -91 836 529 
Q 422 1150 422 2328 
Q 422 3509 836 4129 
Q 1250 4750 2034 4750 
z
" transform="scale(0.015625)"/>
       </defs>
       <use xlink:href="#DejaVuSans-30"/>
      </g>
     </g>
    </g>
    <g id="xtick_2">
     <g id="line2d_3">
      <path d="M 179.091366 320.4 
L 179.091366 43.2 
" clip-path="url(#p3a168fe21d)" style="fill: none; stroke: #b0b0b0; stroke-width: 0.8; stroke-linecap: square"/>
     </g>
     <g id="line2d_4">
      <g>
       <use xlink:href="#me98e88a760" x="179.091366" y="320.4" style="stroke: #000000; stroke-width: 0.8"/>
      </g>
     </g>
     <g id="text_2">
      <!-- 25 -->
      <g transform="translate(172.728866 334.998438) scale(0.1 -0.1)">
       <defs>
        <path id="DejaVuSans-32" d="M 1228 531 
L 3431 531 
L 3431 0 
L 469 0 
L 469 531 
Q 828 903 1448 1529 
Q 2069 2156 2228 2338 
Q 2531 2678 2651 2914 
Q 2772 3150 2772 3378 
Q 2772 3750 2511 3984 
Q 2250 4219 1831 4219 
Q 1534 4219 1204 4116 
Q 875 4013 500 3803 
L 500 4441 
Q 881 4594 1212 4672 
Q 1544 4750 1819 4750 
Q 2544 4750 2975 4387 
Q 3406 4025 3406 3419 
Q 3406 3131 3298 2873 
Q 3191 2616 2906 2266 
Q 2828 2175 2409 1742 
Q 1991 1309 1228 531 
z
" transform="scale(0.015625)"/>
        <path id="DejaVuSans-35" d="M 691 4666 
L 3169 4666 
L 3169 4134 
L 1269 4134 
L 1269 2991 
Q 1406 3038 1543 3061 
Q 1681 3084 1819 3084 
Q 2600 3084 3056 2656 
Q 3513 2228 3513 1497 
Q 3513 744 3044 326 
Q 2575 -91 1722 -91 
Q 1428 -91 1123 -41 
Q 819 9 494 109 
L 494 744 
Q 775 591 1075 516 
Q 1375 441 1709 441 
Q 2250 441 2565 725 
Q 2881 1009 2881 1497 
Q 2881 1984 2565 2268 
Q 2250 2553 1709 2553 
Q 1456 2553 1204 2497 
Q 953 2441 691 2322 
L 691 4666 
z
" transform="scale(0.015625)"/>
       </defs>
       <use xlink:href="#DejaVuSans-32"/>
       <use xlink:href="#DejaVuSans-35" x="63.623047"/>
      </g>
     </g>
    </g>
    <g id="xtick_3">
     <g id="line2d_5">
      <path d="M 242.819095 320.4 
L 242.819095 43.2 
" clip-path="url(#p3a168fe21d)" style="fill: none; stroke: #b0b0b0; stroke-width: 0.8; stroke-linecap: square"/>
     </g>
     <g id="line2d_6">
      <g>
       <use xlink:href="#me98e88a760" x="242.819095" y="320.4" style="stroke: #000000; stroke-width: 0.8"/>
      </g>
     </g>
     <g id="text_3">
      <!-- 50 -->
      <g transform="translate(236.456595 334.998438) scale(0.1 -0.1)">
       <use xlink:href="#DejaVuSans-35"/>
       <use xlink:href="#DejaVuSans-30" x="63.623047"/>
      </g>
     </g>
    </g>
    <g id="xtick_4">
     <g id="line2d_7">
      <path d="M 306.546825 320.4 
L 306.546825 43.2 
" clip-path="url(#p3a168fe21d)" style="fill: none; stroke: #b0b0b0; stroke-width: 0.8; stroke-linecap: square"/>
     </g>
     <g id="line2d_8">
      <g>
       <use xlink:href="#me98e88a760" x="306.546825" y="320.4" style="stroke: #000000; stroke-width: 0.8"/>
      </g>
     </g>
     <g id="text_4">
      <!-- 75 -->
      <g transform="translate(300.184325 334.998438) scale(0.1 -0.1)">
       <defs>
        <path id="DejaVuSans-37" d="M 525 4666 
L 3525 4666 
L 3525 4397 
L 1831 0 
L 1172 0 
L 2766 4134 
L 525 4134 
L 525 4666 
z
" transform="scale(0.015625)"/>
       </defs>
       <use xlink:href="#DejaVuSans-37"/>
       <use xlink:href="#DejaVuSans-35" x="63.623047"/>
      </g>
     </g>
    </g>
    <g id="xtick_5">
     <g id="line2d_9">
      <path d="M 370.274555 320.4 
L 370.274555 43.2 
" clip-path="url(#p3a168fe21d)" style="fill: none; stroke: #b0b0b0; stroke-width: 0.8; stroke-linecap: square"/>
     </g>
     <g id="line2d_10">
      <g>
       <use xlink:href="#me98e88a760" x="370.274555" y="320.4" style="stroke: #000000; stroke-width: 0.8"/>
      </g>
     </g>
     <g id="text_5">
      <!-- 100 -->
      <g transform="translate(360.730805 334.998438) scale(0.1 -0.1)">
       <defs>
        <path id="DejaVuSans-31" d="M 794 531 
L 1825 531 
L 1825 4091 
L 703 3866 
L 703 4441 
L 1819 4666 
L 2450 4666 
L 2450 531 
L 3481 531 
L 3481 0 
L 794 0 
L 794 531 
z
" transform="scale(0.015625)"/>
       </defs>
       <use xlink:href="#DejaVuSans-31"/>
       <use xlink:href="#DejaVuSans-30" x="63.623047"/>
       <use xlink:href="#DejaVuSans-30" x="127.246094"/>
      </g>
     </g>
    </g>
    <g id="xtick_6">
     <g id="line2d_11">
      <path d="M 434.002284 320.4 
L 434.002284 43.2 
" clip-path="url(#p3a168fe21d)" style="fill: none; stroke: #b0b0b0; stroke-width: 0.8; stroke-linecap: square"/>
     </g>
     <g id="line2d_12">
      <g>
       <use xlink:href="#me98e88a760" x="434.002284" y="320.4" style="stroke: #000000; stroke-width: 0.8"/>
      </g>
     </g>
     <g id="text_6">
      <!-- 125 -->
      <g transform="translate(424.458534 334.998438) scale(0.1 -0.1)">
       <use xlink:href="#DejaVuSans-31"/>
       <use xlink:href="#DejaVuSans-32" x="63.623047"/>
       <use xlink:href="#DejaVuSans-35" x="127.246094"/>
      </g>
     </g>
    </g>
    <g id="xtick_7">
     <g id="line2d_13">
      <path d="M 497.730014 320.4 
L 497.730014 43.2 
" clip-path="url(#p3a168fe21d)" style="fill: none; stroke: #b0b0b0; stroke-width: 0.8; stroke-linecap: square"/>
     </g>
     <g id="line2d_14">
      <g>
       <use xlink:href="#me98e88a760" x="497.730014" y="320.4" style="stroke: #000000; stroke-width: 0.8"/>
      </g>
     </g>
     <g id="text_7">
      <!-- 150 -->
      <g transform="translate(488.186264 334.998438) scale(0.1 -0.1)">
       <use xlink:href="#DejaVuSans-31"/>
       <use xlink:href="#DejaVuSans-35" x="63.623047"/>
       <use xlink:href="#DejaVuSans-30" x="127.246094"/>
      </g>
     </g>
    </g>
    <g id="xtick_8">
     <g id="line2d_15">
      <path d="M 561.457743 320.4 
L 561.457743 43.2 
" clip-path="url(#p3a168fe21d)" style="fill: none; stroke: #b0b0b0; stroke-width: 0.8; stroke-linecap: square"/>
     </g>
     <g id="line2d_16">
      <g>
       <use xlink:href="#me98e88a760" x="561.457743" y="320.4" style="stroke: #000000; stroke-width: 0.8"/>
      </g>
     </g>
     <g id="text_8">
      <!-- 175 -->
      <g transform="translate(551.913993 334.998438) scale(0.1 -0.1)">
       <use xlink:href="#DejaVuSans-31"/>
       <use xlink:href="#DejaVuSans-37" x="63.623047"/>
       <use xlink:href="#DejaVuSans-35" x="127.246094"/>
      </g>
     </g>
    </g>
    <g id="xtick_9">
     <g id="line2d_17">
      <path d="M 625.185473 320.4 
L 625.185473 43.2 
" clip-path="url(#p3a168fe21d)" style="fill: none; stroke: #b0b0b0; stroke-width: 0.8; stroke-linecap: square"/>
     </g>
     <g id="line2d_18">
      <g>
       <use xlink:href="#me98e88a760" x="625.185473" y="320.4" style="stroke: #000000; stroke-width: 0.8"/>
      </g>
     </g>
     <g id="text_9">
      <!-- 200 -->
      <g transform="translate(615.641723 334.998438) scale(0.1 -0.1)">
       <use xlink:href="#DejaVuSans-32"/>
       <use xlink:href="#DejaVuSans-30" x="63.623047"/>
       <use xlink:href="#DejaVuSans-30" x="127.246094"/>
      </g>
     </g>
    </g>
    <g id="text_10">
     <!-- Generations -->
     <g transform="translate(338.502344 348.676562) scale(0.1 -0.1)">
      <defs>
       <path id="DejaVuSans-47" d="M 3809 666 
L 3809 1919 
L 2778 1919 
L 2778 2438 
L 4434 2438 
L 4434 434 
Q 4069 175 3628 42 
Q 3188 -91 2688 -91 
Q 1594 -91 976 548 
Q 359 1188 359 2328 
Q 359 3472 976 4111 
Q 1594 4750 2688 4750 
Q 3144 4750 3555 4637 
Q 3966 4525 4313 4306 
L 4313 3634 
Q 3963 3931 3569 4081 
Q 3175 4231 2741 4231 
Q 1884 4231 1454 3753 
Q 1025 3275 1025 2328 
Q 1025 1384 1454 906 
Q 1884 428 2741 428 
Q 3075 428 3337 486 
Q 3600 544 3809 666 
z
" transform="scale(0.015625)"/>
       <path id="DejaVuSans-65" d="M 3597 1894 
L 3597 1613 
L 953 1613 
Q 991 1019 1311 708 
Q 1631 397 2203 397 
Q 2534 397 2845 478 
Q 3156 559 3463 722 
L 3463 178 
Q 3153 47 2828 -22 
Q 2503 -91 2169 -91 
Q 1331 -91 842 396 
Q 353 884 353 1716 
Q 353 2575 817 3079 
Q 1281 3584 2069 3584 
Q 2775 3584 3186 3129 
Q 3597 2675 3597 1894 
z
M 3022 2063 
Q 3016 2534 2758 2815 
Q 2500 3097 2075 3097 
Q 1594 3097 1305 2825 
Q 1016 2553 972 2059 
L 3022 2063 
z
" transform="scale(0.015625)"/>
       <path id="DejaVuSans-6e" d="M 3513 2113 
L 3513 0 
L 2938 0 
L 2938 2094 
Q 2938 2591 2744 2837 
Q 2550 3084 2163 3084 
Q 1697 3084 1428 2787 
Q 1159 2491 1159 1978 
L 1159 0 
L 581 0 
L 581 3500 
L 1159 3500 
L 1159 2956 
Q 1366 3272 1645 3428 
Q 1925 3584 2291 3584 
Q 2894 3584 3203 3211 
Q 3513 2838 3513 2113 
z
" transform="scale(0.015625)"/>
       <path id="DejaVuSans-72" d="M 2631 2963 
Q 2534 3019 2420 3045 
Q 2306 3072 2169 3072 
Q 1681 3072 1420 2755 
Q 1159 2438 1159 1844 
L 1159 0 
L 581 0 
L 581 3500 
L 1159 3500 
L 1159 2956 
Q 1341 3275 1631 3429 
Q 1922 3584 2338 3584 
Q 2397 3584 2469 3576 
Q 2541 3569 2628 3553 
L 2631 2963 
z
" transform="scale(0.015625)"/>
       <path id="DejaVuSans-61" d="M 2194 1759 
Q 1497 1759 1228 1600 
Q 959 1441 959 1056 
Q 959 750 1161 570 
Q 1363 391 1709 391 
Q 2188 391 2477 730 
Q 2766 1069 2766 1631 
L 2766 1759 
L 2194 1759 
z
M 3341 1997 
L 3341 0 
L 2766 0 
L 2766 531 
Q 2569 213 2275 61 
Q 1981 -91 1556 -91 
Q 1019 -91 701 211 
Q 384 513 384 1019 
Q 384 1609 779 1909 
Q 1175 2209 1959 2209 
L 2766 2209 
L 2766 2266 
Q 2766 2663 2505 2880 
Q 2244 3097 1772 3097 
Q 1472 3097 1187 3025 
Q 903 2953 641 2809 
L 641 3341 
Q 956 3463 1253 3523 
Q 1550 3584 1831 3584 
Q 2591 3584 2966 3190 
Q 3341 2797 3341 1997 
z
" transform="scale(0.015625)"/>
       <path id="DejaVuSans-74" d="M 1172 4494 
L 1172 3500 
L 2356 3500 
L 2356 3053 
L 1172 3053 
L 1172 1153 
Q 1172 725 1289 603 
Q 1406 481 1766 481 
L 2356 481 
L 2356 0 
L 1766 0 
Q 1100 0 847 248 
Q 594 497 594 1153 
L 594 3053 
L 172 3053 
L 172 3500 
L 594 3500 
L 594 4494 
L 1172 4494 
z
" transform="scale(0.015625)"/>
       <path id="DejaVuSans-69" d="M 603 3500 
L 1178 3500 
L 1178 0 
L 603 0 
L 603 3500 
z
M 603 4863 
L 1178 4863 
L 1178 4134 
L 603 4134 
L 603 4863 
z
" transform="scale(0.015625)"/>
       <path id="DejaVuSans-6f" d="M 1959 3097 
Q 1497 3097 1228 2736 
Q 959 2375 959 1747 
Q 959 1119 1226 758 
Q 1494 397 1959 397 
Q 2419 397 2687 759 
Q 2956 1122 2956 1747 
Q 2956 2369 2687 2733 
Q 2419 3097 1959 3097 
z
M 1959 3584 
Q 2709 3584 3137 3096 
Q 3566 2609 3566 1747 
Q 3566 888 3137 398 
Q 2709 -91 1959 -91 
Q 1206 -91 779 398 
Q 353 888 353 1747 
Q 353 2609 779 3096 
Q 1206 3584 1959 3584 
z
" transform="scale(0.015625)"/>
       <path id="DejaVuSans-73" d="M 2834 3397 
L 2834 2853 
Q 2591 2978 2328 3040 
Q 2066 3103 1784 3103 
Q 1356 3103 1142 2972 
Q 928 2841 928 2578 
Q 928 2378 1081 2264 
Q 1234 2150 1697 2047 
L 1894 2003 
Q 2506 1872 2764 1633 
Q 3022 1394 3022 966 
Q 3022 478 2636 193 
Q 2250 -91 1575 -91 
Q 1294 -91 989 -36 
Q 684 19 347 128 
L 347 722 
Q 666 556 975 473 
Q 1284 391 1588 391 
Q 1994 391 2212 530 
Q 2431 669 2431 922 
Q 2431 1156 2273 1281 
Q 2116 1406 1581 1522 
L 1381 1569 
Q 847 1681 609 1914 
Q 372 2147 372 2553 
Q 372 3047 722 3315 
Q 1072 3584 1716 3584 
Q 2034 3584 2315 3537 
Q 2597 3491 2834 3397 
z
" transform="scale(0.015625)"/>
      </defs>
      <use xlink:href="#DejaVuSans-47"/>
      <use xlink:href="#DejaVuSans-65" x="77.490234"/>
      <use xlink:href="#DejaVuSans-6e" x="139.013672"/>
      <use xlink:href="#DejaVuSans-65" x="202.392578"/>
      <use xlink:href="#DejaVuSans-72" x="263.916016"/>
      <use xlink:href="#DejaVuSans-61" x="305.029297"/>
      <use xlink:href="#DejaVuSans-74" x="366.308594"/>
      <use xlink:href="#DejaVuSans-69" x="405.517578"/>
      <use xlink:href="#DejaVuSans-6f" x="433.300781"/>
      <use xlink:href="#DejaVuSans-6e" x="494.482422"/>
      <use xlink:href="#DejaVuSans-73" x="557.861328"/>
     </g>
    </g>
   </g>
   <g id="matplotlib.axis_2">
    <g id="ytick_1">
     <g id="line2d_19">
      <path d="M 90 311.752804 
L 648 311.752804 
" clip-path="url(#p3a168fe21d)" style="fill: none; stroke: #b0b0b0; stroke-width: 0.8; stroke-linecap: square"/>
     </g>
     <g id="line2d_20">
      <defs>
       <path id="mcddc10656d" d="M 0 0 
L -3.5 0 
" style="stroke: #000000; stroke-width: 0.8"/>
      </defs>
      <g>
       <use xlink:href="#mcddc10656d" x="90" y="311.752804" style="stroke: #000000; stroke-width: 0.8"/>
      </g>
     </g>
     <g id="text_11">
      <!-- 0 -->
      <g transform="translate(76.6375 315.552023) scale(0.1 -0.1)">
       <use xlink:href="#DejaVuSans-30"/>
      </g>
     </g>
    </g>
    <g id="ytick_2">
     <g id="line2d_21">
      <path d="M 90 258.259909 
L 648 258.259909 
" clip-path="url(#p3a168fe21d)" style="fill: none; stroke: #b0b0b0; stroke-width: 0.8; stroke-linecap: square"/>
     </g>
     <g id="line2d_22">
      <g>
       <use xlink:href="#mcddc10656d" x="90" y="258.259909" style="stroke: #000000; stroke-width: 0.8"/>
      </g>
     </g>
     <g id="text_12">
      <!-- 5000 -->
      <g transform="translate(57.55 262.059128) scale(0.1 -0.1)">
       <use xlink:href="#DejaVuSans-35"/>
       <use xlink:href="#DejaVuSans-30" x="63.623047"/>
       <use xlink:href="#DejaVuSans-30" x="127.246094"/>
       <use xlink:href="#DejaVuSans-30" x="190.869141"/>
      </g>
     </g>
    </g>
    <g id="ytick_3">
     <g id="line2d_23">
      <path d="M 90 204.767014 
L 648 204.767014 
" clip-path="url(#p3a168fe21d)" style="fill: none; stroke: #b0b0b0; stroke-width: 0.8; stroke-linecap: square"/>
     </g>
     <g id="line2d_24">
      <g>
       <use xlink:href="#mcddc10656d" x="90" y="204.767014" style="stroke: #000000; stroke-width: 0.8"/>
      </g>
     </g>
     <g id="text_13">
      <!-- 10000 -->
      <g transform="translate(51.1875 208.566233) scale(0.1 -0.1)">
       <use xlink:href="#DejaVuSans-31"/>
       <use xlink:href="#DejaVuSans-30" x="63.623047"/>
       <use xlink:href="#DejaVuSans-30" x="127.246094"/>
       <use xlink:href="#DejaVuSans-30" x="190.869141"/>
       <use xlink:href="#DejaVuSans-30" x="254.492188"/>
      </g>
     </g>
    </g>
    <g id="ytick_4">
     <g id="line2d_25">
      <path d="M 90 151.274119 
L 648 151.274119 
" clip-path="url(#p3a168fe21d)" style="fill: none; stroke: #b0b0b0; stroke-width: 0.8; stroke-linecap: square"/>
     </g>
     <g id="line2d_26">
      <g>
       <use xlink:href="#mcddc10656d" x="90" y="151.274119" style="stroke: #000000; stroke-width: 0.8"/>
      </g>
     </g>
     <g id="text_14">
      <!-- 15000 -->
      <g transform="translate(51.1875 155.073338) scale(0.1 -0.1)">
       <use xlink:href="#DejaVuSans-31"/>
       <use xlink:href="#DejaVuSans-35" x="63.623047"/>
       <use xlink:href="#DejaVuSans-30" x="127.246094"/>
       <use xlink:href="#DejaVuSans-30" x="190.869141"/>
       <use xlink:href="#DejaVuSans-30" x="254.492188"/>
      </g>
     </g>
    </g>
    <g id="ytick_5">
     <g id="line2d_27">
      <path d="M 90 97.781224 
L 648 97.781224 
" clip-path="url(#p3a168fe21d)" style="fill: none; stroke: #b0b0b0; stroke-width: 0.8; stroke-linecap: square"/>
     </g>
     <g id="line2d_28">
      <g>
       <use xlink:href="#mcddc10656d" x="90" y="97.781224" style="stroke: #000000; stroke-width: 0.8"/>
      </g>
     </g>
     <g id="text_15">
      <!-- 20000 -->
      <g transform="translate(51.1875 101.580443) scale(0.1 -0.1)">
       <use xlink:href="#DejaVuSans-32"/>
       <use xlink:href="#DejaVuSans-30" x="63.623047"/>
       <use xlink:href="#DejaVuSans-30" x="127.246094"/>
       <use xlink:href="#DejaVuSans-30" x="190.869141"/>
       <use xlink:href="#DejaVuSans-30" x="254.492188"/>
      </g>
     </g>
    </g>
    <g id="ytick_6">
     <g id="line2d_29">
      <path d="M 90 44.288329 
L 648 44.288329 
" clip-path="url(#p3a168fe21d)" style="fill: none; stroke: #b0b0b0; stroke-width: 0.8; stroke-linecap: square"/>
     </g>
     <g id="line2d_30">
      <g>
       <use xlink:href="#mcddc10656d" x="90" y="44.288329" style="stroke: #000000; stroke-width: 0.8"/>
      </g>
     </g>
     <g id="text_16">
      <!-- 25000 -->
      <g transform="translate(51.1875 48.087548) scale(0.1 -0.1)">
       <use xlink:href="#DejaVuSans-32"/>
       <use xlink:href="#DejaVuSans-35" x="63.623047"/>
       <use xlink:href="#DejaVuSans-30" x="127.246094"/>
       <use xlink:href="#DejaVuSans-30" x="190.869141"/>
       <use xlink:href="#DejaVuSans-30" x="254.492188"/>
      </g>
     </g>
    </g>
    <g id="text_17">
     <!-- Fitness -->
     <g transform="translate(45.107812 199.117187) rotate(-90) scale(0.1 -0.1)">
      <defs>
       <path id="DejaVuSans-46" d="M 628 4666 
L 3309 4666 
L 3309 4134 
L 1259 4134 
L 1259 2759 
L 3109 2759 
L 3109 2228 
L 1259 2228 
L 1259 0 
L 628 0 
L 628 4666 
z
" transform="scale(0.015625)"/>
      </defs>
      <use xlink:href="#DejaVuSans-46"/>
      <use xlink:href="#DejaVuSans-69" x="50.269531"/>
      <use xlink:href="#DejaVuSans-74" x="78.052734"/>
      <use xlink:href="#DejaVuSans-6e" x="117.261719"/>
      <use xlink:href="#DejaVuSans-65" x="180.640625"/>
      <use xlink:href="#DejaVuSans-73" x="242.164062"/>
      <use xlink:href="#DejaVuSans-73" x="294.263672"/>
     </g>
    </g>
   </g>
   <g id="line2d_31">
    <path d="M 115.363636 307.8 
L 117.912746 307.578945 
L 120.461855 307.698092 
L 123.010964 307.559887 
L 128.109182 307.637882 
L 130.658291 307.435479 
L 138.305619 307.367483 
L 140.854728 307.551674 
L 143.403837 307.587595 
L 145.952947 306.907385 
L 148.502056 307.373919 
L 151.051165 307.5538 
L 156.149383 307.138667 
L 158.698492 307.268796 
L 161.247602 306.944083 
L 166.34582 306.856081 
L 176.542257 307.074622 
L 179.091366 306.970486 
L 181.640475 306.514801 
L 186.738693 306.169605 
L 189.287803 305.788745 
L 191.836912 306.000302 
L 194.386021 305.889983 
L 196.93513 305.537571 
L 199.484239 305.960112 
L 202.033349 305.700778 
L 204.582458 305.999818 
L 207.131567 305.381612 
L 209.680676 306.017559 
L 214.778894 305.572556 
L 222.426222 305.5917 
L 224.975331 305.890302 
L 227.52444 305.584509 
L 230.07355 306.02318 
L 232.622659 305.500479 
L 237.720877 305.477848 
L 240.269986 305.854055 
L 242.819095 305.634973 
L 245.368205 306.426208 
L 247.917314 305.897204 
L 250.466423 305.927535 
L 253.015532 305.636783 
L 255.564641 305.807657 
L 258.113751 305.609992 
L 260.66286 305.259842 
L 263.211969 305.405177 
L 270.859296 305.225004 
L 273.408406 305.351256 
L 275.957515 305.967268 
L 278.506624 306.083987 
L 281.055733 304.958404 
L 283.604842 305.869281 
L 286.153952 305.881638 
L 288.703061 305.626191 
L 291.25217 305.719554 
L 293.801279 305.361441 
L 301.448607 305.500157 
L 303.997716 304.848006 
L 306.546825 305.128717 
L 309.095934 304.964502 
L 314.194153 305.260264 
L 316.743262 305.642364 
L 319.292371 305.43161 
L 321.84148 305.554903 
L 326.939698 305.169112 
L 329.488808 305.295647 
L 332.037917 303.812426 
L 334.587026 304.571799 
L 337.136135 303.610543 
L 339.685244 304.424652 
L 342.234354 304.531531 
L 344.783463 303.914811 
L 347.332572 303.178214 
L 349.881681 303.050152 
L 352.43079 304.525511 
L 354.979899 304.033107 
L 360.078118 303.316164 
L 362.627227 303.245775 
L 365.176336 301.291626 
L 367.725445 303.010514 
L 370.274555 301.79705 
L 372.823664 302.281228 
L 375.372773 301.831243 
L 377.921882 302.744923 
L 380.470991 302.092147 
L 383.020101 300.180651 
L 385.56921 301.81667 
L 388.118319 302.384681 
L 393.216537 301.770438 
L 395.765646 302.411447 
L 398.314756 302.397192 
L 400.863865 301.19707 
L 403.412974 302.639926 
L 405.962083 301.586412 
L 408.511192 302.222925 
L 411.060302 300.718577 
L 413.609411 300.642009 
L 416.15852 302.251552 
L 418.707629 301.928315 
L 421.256738 300.548518 
L 423.805847 300.468491 
L 426.354957 301.71277 
L 431.453175 303.018685 
L 434.002284 302.97669 
L 436.551393 302.569839 
L 439.100503 303.067965 
L 441.649612 301.565202 
L 444.198721 301.151587 
L 446.74783 299.924509 
L 451.846048 299.286445 
L 454.395158 301.059253 
L 456.944267 299.923529 
L 459.493376 300.814844 
L 462.042485 299.690875 
L 464.591594 301.01731 
L 467.140704 301.083127 
L 469.689813 299.753469 
L 472.238922 298.770637 
L 474.788031 298.047817 
L 477.33714 297.534981 
L 479.886249 298.26885 
L 482.435359 298.854437 
L 484.984468 300.314793 
L 487.533577 297.737024 
L 490.082686 298.27206 
L 492.631795 299.726799 
L 495.180905 297.892236 
L 497.730014 298.648422 
L 502.828232 298.443611 
L 505.377341 297.178397 
L 510.47556 295.951383 
L 513.024669 297.178974 
L 515.573778 297.643496 
L 518.122887 297.208888 
L 520.671996 295.716115 
L 523.221106 297.153042 
L 525.770215 296.835437 
L 528.319324 295.761923 
L 530.868433 294.849685 
L 533.417542 295.740421 
L 535.966651 295.130954 
L 538.515761 294.841422 
L 541.06487 296.354994 
L 543.613979 294.363922 
L 548.712197 291.330676 
L 551.261307 288.946643 
L 553.810416 289.800019 
L 556.359525 289.293453 
L 558.908634 289.010032 
L 561.457743 288.893364 
L 564.006852 282.808148 
L 566.555962 284.27534 
L 569.105071 279.636309 
L 571.65418 281.384648 
L 574.203289 283.787895 
L 576.752398 283.709274 
L 579.301508 280.524929 
L 581.850617 277.859921 
L 584.399726 275.534673 
L 586.948835 274.787617 
L 589.497944 266.033624 
L 592.047053 271.44935 
L 594.596163 271.137645 
L 597.145272 277.826373 
L 599.694381 264.204556 
L 602.24349 268.319584 
L 604.792599 267.617972 
L 607.341709 265.044344 
L 609.890818 263.851789 
L 612.439927 262.262522 
L 614.989036 266.972692 
L 617.538145 263.847323 
L 620.087254 264.111383 
L 622.636364 266.499092 
L 622.636364 266.499092 
" clip-path="url(#p3a168fe21d)" style="fill: none; stroke: #0000ff; stroke-width: 1.5; stroke-linecap: square"/>
   </g>
   <g id="line2d_32">
    <path d="M 115.363636 302.231069 
L 117.912746 292.217199 
L 120.461855 302.166877 
L 123.010964 297.063655 
L 125.560073 296.871081 
L 133.207401 296.935272 
L 135.75651 297.127846 
L 138.305619 296.935272 
L 140.854728 297.577187 
L 143.403837 296.871081 
L 145.952947 292.088816 
L 148.502056 297.192038 
L 151.051165 296.935272 
L 153.600274 296.806889 
L 158.698492 296.871081 
L 161.247602 291.960433 
L 163.796711 297.063655 
L 166.34582 296.806889 
L 168.894929 291.639475 
L 171.444038 296.871081 
L 173.993148 291.703667 
L 176.542257 296.935272 
L 181.640475 296.999464 
L 184.189584 296.806889 
L 186.738693 249.337294 
L 189.287803 286.40787 
L 191.836912 280.791116 
L 194.386021 264.839535 
L 196.93513 286.215296 
L 199.484239 296.871081 
L 204.582458 286.985594 
L 207.131567 286.728828 
L 209.680676 296.935272 
L 212.229785 286.343679 
L 214.778894 291.639475 
L 217.328004 292.538156 
L 219.877113 291.511093 
L 222.426222 286.086913 
L 224.975331 292.153007 
L 227.52444 286.985594 
L 230.07355 286.600445 
L 232.622659 280.919499 
L 235.171768 270.456289 
L 237.720877 280.726925 
L 240.269986 296.871081 
L 242.819095 286.086913 
L 245.368205 296.871081 
L 247.917314 292.024624 
L 250.466423 291.703667 
L 253.015532 296.806889 
L 258.113751 286.343679 
L 260.66286 275.431128 
L 263.211969 291.960433 
L 265.761078 286.215296 
L 268.310187 286.279487 
L 270.859296 291.446901 
L 273.408406 293.886177 
L 275.957515 291.703667 
L 278.506624 291.511093 
L 281.055733 286.600445 
L 283.604842 291.511093 
L 286.153952 275.559511 
L 288.703061 291.575284 
L 291.25217 281.497223 
L 293.801279 275.431128 
L 296.350388 259.736313 
L 298.899497 280.983691 
L 301.448607 281.689797 
L 303.997716 259.351164 
L 306.546825 275.752086 
L 309.095934 281.112074 
L 311.645043 259.286973 
L 314.194153 265.609833 
L 316.743262 281.36884 
L 319.292371 275.752086 
L 321.84148 275.816277 
L 324.390589 233.128947 
L 326.939698 237.911212 
L 329.488808 280.791116 
L 332.037917 243.527966 
L 334.587026 259.543738 
L 337.136135 237.911212 
L 339.685244 264.839535 
L 342.234354 253.926984 
L 344.783463 255.852729 
L 347.332572 253.991176 
L 349.881681 232.936372 
L 352.43079 264.646961 
L 354.979899 238.681509 
L 357.529009 222.344779 
L 360.078118 243.656349 
L 362.627227 254.055367 
L 365.176336 232.551224 
L 367.725445 271.098204 
L 370.274555 243.463774 
L 372.823664 232.551224 
L 375.372773 248.566996 
L 377.921882 238.296361 
L 380.470991 248.566996 
L 383.020101 233.064755 
L 385.56921 233.449904 
L 388.118319 184.247139 
L 390.667428 237.911212 
L 393.216537 243.72054 
L 395.765646 238.360552 
L 398.314756 222.023822 
L 400.863865 211.04708 
L 403.412974 270.327906 
L 405.962083 238.039595 
L 408.511192 238.296361 
L 411.060302 248.631188 
L 413.609411 254.119559 
L 418.707629 221.95963 
L 421.256738 232.551224 
L 423.805847 211.239654 
L 426.354957 147.625904 
L 428.904066 217.434132 
L 431.453175 254.119559 
L 434.002284 270.07114 
L 436.551393 259.543738 
L 439.100503 227.191236 
L 441.649612 190.505808 
L 444.198721 232.487032 
L 446.74783 243.335391 
L 449.296939 227.83315 
L 451.846048 216.471259 
L 454.395158 248.631188 
L 456.944267 211.175463 
L 459.493376 248.695379 
L 462.042485 248.566996 
L 464.591594 206.136432 
L 467.140704 238.039595 
L 469.689813 168.423941 
L 472.238922 216.792217 
L 474.788031 232.679607 
L 477.33714 216.407068 
L 479.886249 216.471259 
L 482.435359 222.088013 
L 484.984468 195.095499 
L 487.533577 216.407068 
L 490.082686 190.698383 
L 492.631795 243.527966 
L 495.180905 221.95963 
L 500.279123 189.799702 
L 502.828232 222.408971 
L 505.377341 221.895439 
L 507.92645 222.665737 
L 510.47556 221.767056 
L 513.024669 232.80799 
L 515.573778 233.193138 
L 518.122887 232.80799 
L 520.671996 195.095499 
L 523.221106 178.887151 
L 525.770215 189.671319 
L 528.319324 216.599642 
L 530.868433 184.568097 
L 533.417542 190.313234 
L 535.966651 173.976504 
L 538.515761 146.791414 
L 541.06487 195.031307 
L 543.613979 179.015534 
L 546.163088 103.91151 
L 548.712197 136.071438 
L 551.261307 153.948764 
L 553.810416 98.48733 
L 556.359525 168.295558 
L 558.908634 130.839833 
L 561.457743 116.10789 
L 564.006852 130.775642 
L 566.555962 148.33201 
L 569.105071 55.8 
L 571.65418 93.512491 
L 574.203289 119.927283 
L 576.752398 87.767354 
L 579.301508 104.168276 
L 581.850617 94.218597 
L 584.399726 83.241855 
L 586.948835 55.928383 
L 589.497944 109.464072 
L 592.047053 120.633389 
L 594.596163 109.399881 
L 597.145272 130.71145 
L 602.24349 109.849221 
L 604.792599 103.91151 
L 607.341709 109.207306 
L 609.890818 109.207306 
L 612.439927 99.578585 
L 614.989036 72.393496 
L 617.538145 77.625101 
L 620.087254 109.399881 
L 622.636364 109.913413 
L 622.636364 109.913413 
" clip-path="url(#p3a168fe21d)" style="fill: none; stroke: #ff0000; stroke-width: 1.5; stroke-linecap: square"/>
   </g>
   <g id="patch_3">
    <path d="M 90 320.4 
L 90 43.2 
" style="fill: none; stroke: #000000; stroke-width: 0.8; stroke-linejoin: miter; stroke-linecap: square"/>
   </g>
   <g id="patch_4">
    <path d="M 648 320.4 
L 648 43.2 
" style="fill: none; stroke: #000000; stroke-width: 0.8; stroke-linejoin: miter; stroke-linecap: square"/>
   </g>
   <g id="patch_5">
    <path d="M 90 320.4 
L 648 320.4 
" style="fill: none; stroke: #000000; stroke-width: 0.8; stroke-linejoin: miter; stroke-linecap: square"/>
   </g>
   <g id="patch_6">
    <path d="M 90 43.2 
L 648 43.2 
" style="fill: none; stroke: #000000; stroke-width: 0.8; stroke-linejoin: miter; stroke-linecap: square"/>
   </g>
   <g id="text_18">
    <!-- Population's Average and Best Fitness -->
    <g transform="translate(255.083438 37.2) scale(0.12 -0.12)">
     <defs>
      <path id="DejaVuSans-50" d="M 1259 4147 
L 1259 2394 
L 2053 2394 
Q 2494 2394 2734 2622 
Q 2975 2850 2975 3272 
Q 2975 3691 2734 3919 
Q 2494 4147 2053 4147 
L 1259 4147 
z
M 628 4666 
L 2053 4666 
Q 2838 4666 3239 4311 
Q 3641 3956 3641 3272 
Q 3641 2581 3239 2228 
Q 2838 1875 2053 1875 
L 1259 1875 
L 1259 0 
L 628 0 
L 628 4666 
z
" transform="scale(0.015625)"/>
      <path id="DejaVuSans-70" d="M 1159 525 
L 1159 -1331 
L 581 -1331 
L 581 3500 
L 1159 3500 
L 1159 2969 
Q 1341 3281 1617 3432 
Q 1894 3584 2278 3584 
Q 2916 3584 3314 3078 
Q 3713 2572 3713 1747 
Q 3713 922 3314 415 
Q 2916 -91 2278 -91 
Q 1894 -91 1617 61 
Q 1341 213 1159 525 
z
M 3116 1747 
Q 3116 2381 2855 2742 
Q 2594 3103 2138 3103 
Q 1681 3103 1420 2742 
Q 1159 2381 1159 1747 
Q 1159 1113 1420 752 
Q 1681 391 2138 391 
Q 2594 391 2855 752 
Q 3116 1113 3116 1747 
z
" transform="scale(0.015625)"/>
      <path id="DejaVuSans-75" d="M 544 1381 
L 544 3500 
L 1119 3500 
L 1119 1403 
Q 1119 906 1312 657 
Q 1506 409 1894 409 
Q 2359 409 2629 706 
Q 2900 1003 2900 1516 
L 2900 3500 
L 3475 3500 
L 3475 0 
L 2900 0 
L 2900 538 
Q 2691 219 2414 64 
Q 2138 -91 1772 -91 
Q 1169 -91 856 284 
Q 544 659 544 1381 
z
M 1991 3584 
L 1991 3584 
z
" transform="scale(0.015625)"/>
      <path id="DejaVuSans-6c" d="M 603 4863 
L 1178 4863 
L 1178 0 
L 603 0 
L 603 4863 
z
" transform="scale(0.015625)"/>
      <path id="DejaVuSans-27" d="M 1147 4666 
L 1147 2931 
L 616 2931 
L 616 4666 
L 1147 4666 
z
" transform="scale(0.015625)"/>
      <path id="DejaVuSans-20" transform="scale(0.015625)"/>
      <path id="DejaVuSans-41" d="M 2188 4044 
L 1331 1722 
L 3047 1722 
L 2188 4044 
z
M 1831 4666 
L 2547 4666 
L 4325 0 
L 3669 0 
L 3244 1197 
L 1141 1197 
L 716 0 
L 50 0 
L 1831 4666 
z
" transform="scale(0.015625)"/>
      <path id="DejaVuSans-76" d="M 191 3500 
L 800 3500 
L 1894 563 
L 2988 3500 
L 3597 3500 
L 2284 0 
L 1503 0 
L 191 3500 
z
" transform="scale(0.015625)"/>
      <path id="DejaVuSans-67" d="M 2906 1791 
Q 2906 2416 2648 2759 
Q 2391 3103 1925 3103 
Q 1463 3103 1205 2759 
Q 947 2416 947 1791 
Q 947 1169 1205 825 
Q 1463 481 1925 481 
Q 2391 481 2648 825 
Q 2906 1169 2906 1791 
z
M 3481 434 
Q 3481 -459 3084 -895 
Q 2688 -1331 1869 -1331 
Q 1566 -1331 1297 -1286 
Q 1028 -1241 775 -1147 
L 775 -588 
Q 1028 -725 1275 -790 
Q 1522 -856 1778 -856 
Q 2344 -856 2625 -561 
Q 2906 -266 2906 331 
L 2906 616 
Q 2728 306 2450 153 
Q 2172 0 1784 0 
Q 1141 0 747 490 
Q 353 981 353 1791 
Q 353 2603 747 3093 
Q 1141 3584 1784 3584 
Q 2172 3584 2450 3431 
Q 2728 3278 2906 2969 
L 2906 3500 
L 3481 3500 
L 3481 434 
z
" transform="scale(0.015625)"/>
      <path id="DejaVuSans-64" d="M 2906 2969 
L 2906 4863 
L 3481 4863 
L 3481 0 
L 2906 0 
L 2906 525 
Q 2725 213 2448 61 
Q 2172 -91 1784 -91 
Q 1150 -91 751 415 
Q 353 922 353 1747 
Q 353 2572 751 3078 
Q 1150 3584 1784 3584 
Q 2172 3584 2448 3432 
Q 2725 3281 2906 2969 
z
M 947 1747 
Q 947 1113 1208 752 
Q 1469 391 1925 391 
Q 2381 391 2643 752 
Q 2906 1113 2906 1747 
Q 2906 2381 2643 2742 
Q 2381 3103 1925 3103 
Q 1469 3103 1208 2742 
Q 947 2381 947 1747 
z
" transform="scale(0.015625)"/>
      <path id="DejaVuSans-42" d="M 1259 2228 
L 1259 519 
L 2272 519 
Q 2781 519 3026 730 
Q 3272 941 3272 1375 
Q 3272 1813 3026 2020 
Q 2781 2228 2272 2228 
L 1259 2228 
z
M 1259 4147 
L 1259 2741 
L 2194 2741 
Q 2656 2741 2882 2914 
Q 3109 3088 3109 3444 
Q 3109 3797 2882 3972 
Q 2656 4147 2194 4147 
L 1259 4147 
z
M 628 4666 
L 2241 4666 
Q 2963 4666 3353 4366 
Q 3744 4066 3744 3513 
Q 3744 3084 3544 2831 
Q 3344 2578 2956 2516 
Q 3422 2416 3680 2098 
Q 3938 1781 3938 1306 
Q 3938 681 3513 340 
Q 3088 0 2303 0 
L 628 0 
L 628 4666 
z
" transform="scale(0.015625)"/>
     </defs>
     <use xlink:href="#DejaVuSans-50"/>
     <use xlink:href="#DejaVuSans-6f" x="56.677734"/>
     <use xlink:href="#DejaVuSans-70" x="117.859375"/>
     <use xlink:href="#DejaVuSans-75" x="181.335938"/>
     <use xlink:href="#DejaVuSans-6c" x="244.714844"/>
     <use xlink:href="#DejaVuSans-61" x="272.498047"/>
     <use xlink:href="#DejaVuSans-74" x="333.777344"/>
     <use xlink:href="#DejaVuSans-69" x="372.986328"/>
     <use xlink:href="#DejaVuSans-6f" x="400.769531"/>
     <use xlink:href="#DejaVuSans-6e" x="461.951172"/>
     <use xlink:href="#DejaVuSans-27" x="525.330078"/>
     <use xlink:href="#DejaVuSans-73" x="552.820312"/>
     <use xlink:href="#DejaVuSans-20" x="604.919922"/>
     <use xlink:href="#DejaVuSans-41" x="636.707031"/>
     <use xlink:href="#DejaVuSans-76" x="699.240234"/>
     <use xlink:href="#DejaVuSans-65" x="758.419922"/>
     <use xlink:href="#DejaVuSans-72" x="819.943359"/>
     <use xlink:href="#DejaVuSans-61" x="861.056641"/>
     <use xlink:href="#DejaVuSans-67" x="922.335938"/>
     <use xlink:href="#DejaVuSans-65" x="985.8125"/>
     <use xlink:href="#DejaVuSans-20" x="1047.335938"/>
     <use xlink:href="#DejaVuSans-61" x="1079.123047"/>
     <use xlink:href="#DejaVuSans-6e" x="1140.402344"/>
     <use xlink:href="#DejaVuSans-64" x="1203.78125"/>
     <use xlink:href="#DejaVuSans-20" x="1267.257812"/>
     <use xlink:href="#DejaVuSans-42" x="1299.044922"/>
     <use xlink:href="#DejaVuSans-65" x="1367.648438"/>
     <use xlink:href="#DejaVuSans-73" x="1429.171875"/>
     <use xlink:href="#DejaVuSans-74" x="1481.271484"/>
     <use xlink:href="#DejaVuSans-20" x="1520.480469"/>
     <use xlink:href="#DejaVuSans-46" x="1552.267578"/>
     <use xlink:href="#DejaVuSans-69" x="1602.537109"/>
     <use xlink:href="#DejaVuSans-74" x="1630.320312"/>
     <use xlink:href="#DejaVuSans-6e" x="1669.529297"/>
     <use xlink:href="#DejaVuSans-65" x="1732.908203"/>
     <use xlink:href="#DejaVuSans-73" x="1794.431641"/>
     <use xlink:href="#DejaVuSans-73" x="1846.53125"/>
    </g>
   </g>
   <g id="legend_1">
    <g id="patch_7">
     <path d="M 97 80.55625 
L 207.878125 80.55625 
Q 209.878125 80.55625 209.878125 78.55625 
L 209.878125 50.2 
Q 209.878125 48.2 207.878125 48.2 
L 97 48.2 
Q 95 48.2 95 50.2 
L 95 78.55625 
Q 95 80.55625 97 80.55625 
z
" style="fill: #ffffff; opacity: 0.8; stroke: #cccccc; stroke-linejoin: miter"/>
    </g>
    <g id="line2d_33">
     <path d="M 99 56.298437 
L 109 56.298437 
L 119 56.298437 
" style="fill: none; stroke: #0000ff; stroke-width: 1.5; stroke-linecap: square"/>
    </g>
    <g id="text_19">
     <!-- Average Fitness -->
     <g transform="translate(127 59.798437) scale(0.1 -0.1)">
      <use xlink:href="#DejaVuSans-41"/>
      <use xlink:href="#DejaVuSans-76" x="62.533203"/>
      <use xlink:href="#DejaVuSans-65" x="121.712891"/>
      <use xlink:href="#DejaVuSans-72" x="183.236328"/>
      <use xlink:href="#DejaVuSans-61" x="224.349609"/>
      <use xlink:href="#DejaVuSans-67" x="285.628906"/>
      <use xlink:href="#DejaVuSans-65" x="349.105469"/>
      <use xlink:href="#DejaVuSans-20" x="410.628906"/>
      <use xlink:href="#DejaVuSans-46" x="442.416016"/>
      <use xlink:href="#DejaVuSans-69" x="492.685547"/>
      <use xlink:href="#DejaVuSans-74" x="520.46875"/>
      <use xlink:href="#DejaVuSans-6e" x="559.677734"/>
      <use xlink:href="#DejaVuSans-65" x="623.056641"/>
      <use xlink:href="#DejaVuSans-73" x="684.580078"/>
      <use xlink:href="#DejaVuSans-73" x="736.679688"/>
     </g>
    </g>
    <g id="line2d_34">
     <path d="M 99 70.976562 
L 109 70.976562 
L 119 70.976562 
" style="fill: none; stroke: #ff0000; stroke-width: 1.5; stroke-linecap: square"/>
    </g>
    <g id="text_20">
     <!-- Best Fitness -->
     <g transform="translate(127 74.476562) scale(0.1 -0.1)">
      <use xlink:href="#DejaVuSans-42"/>
      <use xlink:href="#DejaVuSans-65" x="68.603516"/>
      <use xlink:href="#DejaVuSans-73" x="130.126953"/>
      <use xlink:href="#DejaVuSans-74" x="182.226562"/>
      <use xlink:href="#DejaVuSans-20" x="221.435547"/>
      <use xlink:href="#DejaVuSans-46" x="253.222656"/>
      <use xlink:href="#DejaVuSans-69" x="303.492188"/>
      <use xlink:href="#DejaVuSans-74" x="331.275391"/>
      <use xlink:href="#DejaVuSans-6e" x="370.484375"/>
      <use xlink:href="#DejaVuSans-65" x="433.863281"/>
      <use xlink:href="#DejaVuSans-73" x="495.386719"/>
      <use xlink:href="#DejaVuSans-73" x="547.486328"/>
     </g>
    </g>
   </g>
  </g>
 </g>
 <defs>
  <clipPath id="p3a168fe21d">
   <rect x="90" y="43.2" width="558" height="277.2"/>
  </clipPath>
 </defs>
</svg>
